# xmcd CD database file
#
# Track frame offsets:
#	150
#	18992
#	37345
#	54445
#	74980
#	88772
#	107770
#	125352
#	139135
#	157680
#	174495
#	193040
#	210230
#	224867
#	242985
#	266505
#
# Disc length: 3785 seconds
#
# Revision: 4
# Processed by: cddbd v1.5.1PL2 Copyright (c) Steve Scherf et al.
# Submitted via: CDex 1.40Beta9
#
DISCID=d40ec710,f30ec710
DTITLE=Various Artist - Formel Eins - Sun 'n' Fun
DYEAR=1989
DGENRE=
TTITLE0=Queen - Breakthru
TTITLE1=Mysterious Art - Das Omen (Teil 1)
TTITLE2=Soul II Soul - Back To Life
TTITLE3=Don Johnson - Tell It Like It Is
TTITLE4=Bangles - Be With You
TTITLE5=Roxette - Dressed For Success
TTITLE6=De La Soul - Say No Go
TTITLE7=Adeva - Warning
TTITLE8=Jive Bunny and The Mastermixers - Swing The Mood
TTITLE9=Monie Love - Grandpa's Party
TTITLE10=Alexander O'Neil - The Official Bootleg Mega-Mix (Vol.2)
TTITLE11=Soulsister - Like A Mountain
TTITLE12=Sinitta - Right Back Where We Started
TTITLE13=The Christians - Ferry 'Cross The Mersey
TTITLE14=S.O.S. United feat. Chris Thompson - Lullaby For Grownups (Good Night)
TTITLE15=Natalie Cole - Miss You Like Crazy
EXTD=YEAR: 1989
EXTT0=
EXTT1=
EXTT2=
EXTT3=
EXTT4=
EXTT5=
EXTT6=
EXTT7=
EXTT8=
EXTT9=
EXTT10=
EXTT11=
EXTT12=
EXTT13=
EXTT14=
EXTT15=
PLAYORDER=
